<svg xmlns="http://www.w3.org/2000/svg" viewBox="0 0 32 32"><path fill="none" d="M0 0h32v32H0z"/><path fill="#007BC7" d="M29.387 5.04a2.94 2.94 0 00-2.439-2.439C23.307 2 17.213 2 16 2s-7.307 0-10.961.613A2.913 2.913 0 002.613 5.04C2 8.692 2 14.786 2 16s0 7.308.613 10.96a2.94 2.94 0 002.439 2.439c3.652.613 9.734.613 10.961.613 1.213 0 7.307 0 10.961-.613a2.94 2.94 0 002.439-2.439c.611-3.652.611-9.733.611-10.96C30 12.347 30 8.692 29.387 5.04z"/><path fill="#FFF" d="M14.279 9.239c0-.453.148-.84.441-1.173s.719-.507 1.266-.507.961.16 1.254.48c.293.319.439.721.439 1.199 0 .428-.146.814-.439 1.147s-.719.493-1.254.493c-.547 0-.961-.16-1.266-.466a1.666 1.666 0 01-.441-1.173zm3.2 3.188v11.947h-2.945V12.547l2.945-.12z"/></svg>